<?xml version="1.0" encoding="UTF-8"?>
<svg id="Laag_2" data-name="Laag 2" xmlns="http://www.w3.org/2000/svg" viewBox="0 0 239.84 91.22">
  <defs>
    <style>
      .cls-1 {
        fill: #005092;
      }

      .cls-2 {
        fill: #007ac2;
      }

      .cls-3 {
        fill: #fff;
      }
    </style>
  </defs>
  <g id="Layer_1" data-name="Layer 1">
    <g>
      <path class="cls-1" d="M5.45,91.22s-6.39-.53-5.34-5.76l6.25-22.01h216.84l-6.29,22.06c-1.33,5.85-6.37,5.71-6.37,5.71H5.45Z"/>
      <polygon class="cls-2" points="15.4 31.7 232.32 31.7 224.1 59.52 7.49 59.52 15.4 31.7"/>
      <path class="cls-1" d="M234.38,0s6.39.53,5.34,5.76l-6.24,22.01H16.55l6.29-22.06C24.18-.13,29.21,0,29.21,0h205.17Z"/>
      <g>
        <path class="cls-3" d="M41.73,36.72h18.15v4.18h-12.82v3.24h12.22v4.03h-12.22v5.93h-5.33v-17.38Z"/>
        <path class="cls-3" d="M69.36,36.72h6.94l9.55,17.38h-5.93l-1.66-3.07h-10.8l-1.56,3.07h-5.95l9.41-17.38ZM69.45,47.28h6.82l-3.46-6.53-3.36,6.53Z"/>
        <path class="cls-3" d="M108.38,40.42h-13.7c-1.2,0-2.02.41-2.02,1.34,0,1.51.65,1.56,6.36,1.54,8.28-.02,10.2.48,10.2,5.54,0,4.68-1.58,5.45-8.67,5.45h-12.66v-3.89h13.57c1.13,0,2.28-.12,2.28-1.46,0-1.51-.62-1.61-7.49-1.61-8.02,0-8.93-.96-8.93-5.23,0-3.14.29-5.57,7.01-5.57h14.03v3.89Z"/>
        <path class="cls-3" d="M112.52,36.72h5.33v6.19h11.23v-6.19h5.33v17.38h-5.33v-6.58h-11.23v6.58h-5.33v-17.38Z"/>
        <path class="cls-3" d="M138.4,36.72h5.33v17.38h-5.33v-17.38Z"/>
        <path class="cls-3" d="M147.34,42.82c0-5.09,2.86-6.29,7.66-6.29h8.54c4.8,0,7.66,1.2,7.66,6.29v5.18c0,5.09-2.86,6.29-7.66,6.29h-8.54c-4.8,0-7.66-1.2-7.66-6.29v-5.18ZM152.82,46.34c0,2.52.53,3.48,3.05,3.48h6.82c2.52,0,3.05-.96,3.05-3.48v-1.87c0-2.16-.53-3.48-3.33-3.48h-6.24c-2.81,0-3.33,1.32-3.33,3.48v1.87Z"/>
        <path class="cls-3" d="M174.41,36.72h8.26l10.01,12.62h.05v-12.62h5.33v17.38h-8.26l-10.01-12.62h-.05v12.62h-5.33v-17.38Z"/>
      </g>
      <path class="cls-3" d="M50.08,6.32h-7.58c-5.96,0-8.21.5-9.19,3.79l-1.48,4.94c-1.23,4.1-1.55,5.95,3.26,5.95h11.92l-.44,1.8h-12.56c-4.64,0-6.76-2.06-5.68-5.67l2.08-6.96c1.52-5.09,6.13-5.67,12.29-5.67h8.32l-.95,1.8Z"/>
      <path class="cls-3" d="M66.72,4.52c6.31.05,7.8,1.54,6.45,6.05l-1.92,6.41c-1.27,4.25-3.91,5.83-10,5.83h-3.42c-6.09,0-7.78-1.58-6.51-5.83l1.92-6.41c1.35-4.51,3.73-6,10.07-6.05h3.42ZM62.77,6.32c-4.26,0-5.6.74-6.65,4.25l-1.92,6.41c-1.07,3.58.46,4.01,4.17,4.03h3.42c3.73-.02,5.52-.46,6.59-4.03l1.92-6.41c1.05-3.5.15-4.25-4.11-4.25h-3.42Z"/>
      <path class="cls-3" d="M77,22.67h-2.88l5.39-18h11.71c5.48,0,7.56,1.08,6.33,5.18-.75,2.52-1.72,4.39-5.86,4.75v.05c2.79.14,3.69,1.3,3.11,3.24l-1.43,4.78h-2.88l1.14-3.82c.68-2.28.23-3.38-3.25-3.38h-9.24l-2.16,7.2ZM88.56,13.66c4.46-.1,5.29-1.05,6.18-4.03.69-2.3.51-3.17-4.03-3.17h-8.87l-2.16,7.2h8.87Z"/>
      <path class="cls-3" d="M103.46,4.66h12.93c4.91,0,5.35,2.35,4.43,5.45-.48,1.61-1.69,5.54-7.85,5.54h-9.92l-2.1,7.01h-2.88l5.39-18ZM105.8,6.46l-2.21,7.39h7.45c3.82,0,5.78.02,6.83-3.48,1.04-3.46.29-3.91-3.26-3.91h-8.8Z"/>
      <path class="cls-3" d="M136.93,4.52c6.31.05,7.8,1.54,6.45,6.05l-1.92,6.41c-1.27,4.25-3.91,5.83-10,5.83h-3.42c-6.09,0-7.78-1.58-6.51-5.83l1.92-6.41c1.35-4.51,3.72-6,10.07-6.05h3.42ZM132.98,6.32c-4.27,0-5.6.74-6.65,4.25l-1.92,6.41c-1.07,3.58.46,4.01,4.17,4.03h3.42c3.73-.02,5.52-.46,6.59-4.03l1.92-6.41c1.05-3.5.15-4.25-4.11-4.25h-3.42Z"/>
      <path class="cls-3" d="M146.92,22.67h-2.88l5.39-18h11.71c5.48,0,7.56,1.08,6.33,5.18-.75,2.52-1.72,4.39-5.86,4.75v.05c2.79.14,3.69,1.3,3.11,3.24l-1.43,4.78h-2.88l1.14-3.82c.68-2.28.23-3.38-3.25-3.38h-9.24l-2.16,7.2ZM158.48,13.66c4.46-.1,5.29-1.05,6.18-4.03.69-2.3.51-3.17-4.03-3.17h-8.87l-2.16,7.2h8.87Z"/>
      <path class="cls-3" d="M172.32,18.85l-3.1,3.82h-3.01l14.63-18h4.06l4.09,18h-2.98l-.85-3.82h-12.83ZM182.42,6.34l-8.82,10.83h11.23l-2.41-10.83Z"/>
      <path class="cls-3" d="M198.38,22.67h-2.88l4.85-16.2h-8.22l.54-1.8h19.32l-.54,1.8h-8.22l-4.85,16.2Z"/>
      <path class="cls-3" d="M214.59,12.58h12.86l-.5,1.68h-12.86l-1.98,6.6h13.43l-.54,1.8h-16.31l5.39-18h16.31l-.54,1.8h-13.43l-1.83,6.12Z"/>
      <g>
        <path class="cls-3" d="M14.18,86.28h-2.88l5.39-18h2.88l-5.39,18Z"/>
        <path class="cls-3" d="M41.63,86.28h-4.7l-9.36-16.32h-.07l-4.89,16.32h-2.88l5.39-18h4.74l9.29,16.44h.07l4.92-16.44h2.88l-5.39,18Z"/>
        <path class="cls-3" d="M51.76,68.28h12.35c3.08,0,8.61.29,6.62,6.94l-1.29,4.3c-.53,1.77-2.43,6.77-10.05,6.77h-13.03l5.39-18ZM59.26,84.48c5.08,0,6.39-2.11,7.42-5.33l1.42-4.73c.3-1.01.79-4.34-4.05-4.34h-9.95l-4.31,14.4h9.48Z"/>
        <path class="cls-3" d="M97.26,68.28l-3.88,12.96c-1.45,4.82-5.61,5.18-11.6,5.18-5.55,0-10.02-.1-8.5-5.18l3.88-12.96h2.88l-3.88,12.96c-.88,2.93-.03,3.38,6.16,3.38,5.11,0,7.18-.03,8.19-3.38l3.88-12.96h2.88Z"/>
        <path class="cls-3" d="M96.49,84.63h8.7c5.42,0,6.9,0,7.96-3.53,1.03-3.43-1.31-2.85-5.87-3.12-4.92-.29-9.35.14-7.93-4.61,1.44-4.8,4.68-5.23,10.94-5.23h8.04l-.51,1.8h-8.17c-5.62,0-6.55.5-7.29,3-1.03,3.43,1.36,3.14,6.07,3.24,5.95.24,9.03.12,7.58,4.99-1.52,5.09-4.96,5.26-11.35,5.26h-8.7l.54-1.8Z"/>
        <path class="cls-3" d="M189.69,84.63h8.7c5.42,0,6.9,0,7.96-3.53,1.03-3.43-1.31-2.85-5.87-3.12-4.92-.29-9.35.14-7.93-4.61,1.44-4.8,4.68-5.23,10.94-5.23h8.04l-.51,1.8h-8.17c-5.62,0-6.55.5-7.29,3-1.03,3.43,1.36,3.14,6.07,3.24,5.95.24,9.03.12,7.58,4.99-1.52,5.09-4.96,5.26-11.35,5.26h-8.7l.54-1.8Z"/>
        <path class="cls-3" d="M126.79,86.28h-2.88l4.85-16.2h-8.23l.54-1.8h19.33l-.54,1.8h-8.22l-4.85,16.2Z"/>
        <path class="cls-3" d="M140.36,86.28h-2.88l5.39-18h11.71c5.48,0,7.56,1.08,6.33,5.18-.75,2.52-1.72,4.39-5.86,4.75v.05c2.79.14,3.69,1.3,3.11,3.24l-1.43,4.78h-2.88l1.14-3.82c.68-2.28.24-3.38-3.25-3.38h-9.24l-2.16,7.2ZM151.92,77.28c4.46-.1,5.29-1.06,6.18-4.03.69-2.3.51-3.17-4.03-3.17h-8.87l-2.16,7.2h8.87Z"/>
        <path class="cls-3" d="M164.46,86.28h-2.88l5.39-18h2.88l-5.39,18Z"/>
        <path class="cls-3" d="M175.85,76.2h12.86l-.5,1.68h-12.86l-1.98,6.6h13.44l-.54,1.8h-16.31l5.39-18h16.31l-.54,1.8h-13.44l-1.83,6.12Z"/>
      </g>
    </g>
  </g>
</svg>