<svg width="197" height="37" viewBox="0 0 197 37" fill="none" xmlns="http://www.w3.org/2000/svg">
<g clip-path="url(#clip0_5068_2652)">
<path d="M129.088 7.23173C129.003 7.33684 129.003 7.484 129.003 7.77832V11.3522C129.003 11.4363 129.003 11.4993 129.003 11.5414C129.003 11.6255 128.982 11.6675 128.94 11.7096C128.919 11.7306 128.876 11.7516 128.834 11.7516C128.77 11.7726 128.686 11.7726 128.58 11.7726H113.54C110.553 11.7726 109.049 11.7726 108.117 12.6976C107.185 13.6226 107.185 15.1153 107.185 18.0795V24.3863C107.185 27.3505 107.185 28.8431 108.117 29.7681C109.049 30.6931 110.553 30.6931 113.54 30.6931H134.299V5.46582L129.596 6.97946C129.3 7.06355 129.173 7.12662 129.088 7.23173ZM128.114 26.6567C127.817 26.6988 127.436 26.6988 126.885 26.6988H114.599C113.603 26.6988 113.095 26.6988 112.798 26.3834C112.481 26.0681 112.481 25.5846 112.481 24.5965V17.8692C112.481 16.8812 112.481 16.3766 112.798 16.0823C113.116 15.767 113.603 15.767 114.599 15.767H129.003V24.5965C129.003 25.5846 129.003 26.0891 128.686 26.3834C128.558 26.5306 128.368 26.6147 128.114 26.6567ZM144.89 30.6931C141.904 30.6931 140.4 30.6931 139.468 29.7681C138.536 28.8431 138.535 27.3505 138.535 24.3863V22.284C138.535 21.7164 138.535 21.2749 138.557 20.9175C138.599 20.392 138.705 20.0346 138.959 19.7823C139.171 19.5721 139.446 19.467 139.828 19.4039C140.039 19.3618 140.294 19.3618 140.611 19.3408C140.866 19.3408 141.162 19.3408 141.501 19.3408H159.93C159.994 19.3408 160.057 19.3408 160.1 19.3408C160.142 19.3408 160.163 19.3408 160.184 19.3198C160.227 19.3198 160.248 19.2988 160.29 19.2778C160.311 19.2567 160.333 19.2147 160.354 19.1516C160.354 19.1306 160.354 19.0885 160.354 19.0675V19.0045V18.9204V17.8692C160.354 17.638 160.354 17.4488 160.354 17.2806C160.354 17.0073 160.333 16.776 160.29 16.5868C160.269 16.4607 160.227 16.3556 160.184 16.2715C160.142 16.2084 160.1 16.1454 160.036 16.0823C159.718 15.767 159.231 15.767 158.236 15.767H138.535V11.7726H159.295C162.281 11.7726 163.785 11.7726 164.717 12.6976C165.649 13.6226 165.649 15.1153 165.649 18.0795V30.6931H144.89ZM160.354 23.1249H145.632C144.933 23.1249 144.594 23.1249 144.34 23.2721C144.276 23.3141 144.234 23.3562 144.17 23.3982C144.149 23.4192 144.128 23.4403 144.107 23.4613C144.085 23.4823 144.064 23.5033 144.064 23.5243C144.043 23.5664 144.001 23.5874 143.979 23.6295C143.831 23.8817 143.831 24.2181 143.831 24.9118C143.831 25.3954 143.831 25.6897 143.874 25.9209C143.895 26.026 143.937 26.1101 143.979 26.1942C144.064 26.3414 144.191 26.4465 144.318 26.5516C144.573 26.6988 144.912 26.6988 145.611 26.6988H158.236H158.638C158.807 26.6988 158.956 26.6988 159.083 26.6778C159.549 26.6567 159.845 26.5937 160.036 26.3834C160.163 26.2573 160.227 26.1101 160.269 25.9209C160.333 25.6056 160.333 25.1851 160.333 24.5755V23.1249H160.354ZM175.182 35.0238C175.182 35.0868 175.161 35.1289 175.161 35.1709C175.161 35.192 175.139 35.234 175.118 35.255C175.033 35.3601 174.885 35.4022 174.61 35.5073L169.886 36.9999V11.7726H190.645C193.632 11.7726 195.136 11.7726 196.068 12.6976C197 13.6226 197 15.1153 197 18.0795V24.3863C197 27.3505 197 28.8431 196.068 29.7681C195.136 30.6931 193.632 30.6931 190.645 30.6931H175.605C175.542 30.6931 175.499 30.6931 175.457 30.6931C175.415 30.6931 175.372 30.6931 175.351 30.6931C175.309 30.6931 175.266 30.7141 175.245 30.7351C175.203 30.7772 175.203 30.8192 175.182 30.8823C175.182 30.9454 175.182 31.0084 175.182 31.1135V34.6874V34.8556C175.182 34.9187 175.182 34.9607 175.182 35.0238ZM176.05 15.83C175.817 15.8721 175.627 15.9562 175.499 16.0823C175.182 16.3976 175.182 16.8812 175.182 17.8692V26.6988H189.586C190.582 26.6988 191.09 26.6988 191.387 26.3834C191.704 26.0681 191.704 25.5846 191.704 24.5965V17.8692C191.704 16.8812 191.704 16.3766 191.387 16.0823C191.069 15.767 190.582 15.767 189.586 15.767H177.3C176.94 15.767 176.643 15.767 176.389 15.788C176.262 15.788 176.156 15.809 176.05 15.83ZM96.5936 11.7726C99.5803 11.7726 101.084 11.7726 102.016 12.6976C102.948 13.6226 102.948 15.1153 102.948 18.0795V20.1817C102.948 21.5692 102.948 22.263 102.504 22.6834C102.059 23.1249 101.381 23.1249 99.9828 23.1249H81.5538C81.3631 23.1249 81.2572 23.1249 81.1937 23.188C81.1301 23.251 81.1301 23.3562 81.1301 23.5454V24.5965C81.1301 25.5846 81.1301 26.0891 81.4479 26.3834C81.7656 26.6988 82.2528 26.6988 83.2484 26.6988H102.948V30.6931H82.1893C79.2025 30.6931 77.6985 30.6931 76.7665 29.7681C75.8344 28.8431 75.8344 27.3505 75.8344 24.3863V18.0795C75.8344 15.1153 75.8344 13.6226 76.7665 12.6976C77.6985 11.7726 79.2025 11.7726 82.1893 11.7726H96.5936ZM81.1301 19.3408H95.8522C96.5512 19.3408 96.8901 19.3408 97.1443 19.1937C97.2926 19.1096 97.3985 18.9834 97.4832 18.8363C97.5256 18.7522 97.568 18.6681 97.5892 18.563C97.6315 18.3317 97.6315 18.0164 97.6315 17.5539C97.6315 17.2596 97.6315 17.0073 97.6103 16.8181C97.5892 16.5658 97.5468 16.3976 97.4621 16.2715C97.3773 16.1243 97.2502 16.0192 97.1231 15.9141C96.8689 15.767 96.53 15.767 95.831 15.767H83.2484C82.2528 15.767 81.7444 15.767 81.4479 16.0823C81.1301 16.3976 81.1301 16.8812 81.1301 17.8692V19.3408ZM70.2422 13.1181C68.8653 11.7726 66.6623 11.7726 62.2774 11.7726H44.4839V30.6931H49.7796V17.8692C49.7796 16.8812 49.7796 16.3766 50.0973 16.0823C50.4151 15.767 50.9023 15.767 51.8979 15.767H62.0656C64.0568 15.767 65.0524 15.767 65.6879 16.3766C66.3022 16.9863 66.3022 17.9743 66.3022 19.9715V30.6931H71.5979V21.0226C71.5979 16.6709 71.5979 14.4846 70.2422 13.1181Z" fill="black"/>
<path d="M19.7213 11.7727C20.5262 11.7727 20.9499 11.7727 21.1617 11.5204C21.3947 11.2681 21.3312 10.8687 21.2253 10.0698L19.9755 1.3454C19.8907 0.735742 19.8484 0.420401 19.6365 0.231197C19.4247 0.0419922 19.107 0.0419922 18.4715 0.0419922H17.5394C16.904 0.0419922 16.6074 0.0419922 16.3744 0.231197C16.1626 0.420401 16.1202 0.714719 16.0355 1.3454L14.7857 10.0488C14.6798 10.8477 14.6162 11.2471 14.8492 11.4994C15.0822 11.7517 15.4847 11.7517 16.2897 11.7517H19.7213V11.7727ZM12.1378 14.7579C12.392 14.0011 12.5191 13.6017 12.3285 13.3073C12.159 13.013 11.7565 12.9499 10.9516 12.8028L2.22428 11.2892C1.60998 11.184 1.29224 11.142 1.05923 11.2892C0.826219 11.4363 0.720306 11.7306 0.52966 12.3193L0.233101 13.2022C0.0424561 13.7909 -0.0634578 14.0852 0.0424561 14.3585C0.14837 14.6107 0.444929 14.7579 0.995682 15.0312L8.96041 18.8994C9.68063 19.2568 10.0619 19.4249 10.3797 19.2988C10.6974 19.1727 10.8245 18.7732 11.0787 18.0164L12.1378 14.7579ZM12.6039 22.8096C11.9472 22.3261 11.6083 22.0948 11.2905 22.1789C10.9516 22.263 10.761 22.6204 10.3797 23.3352L6.22783 31.1136C5.93127 31.6602 5.78299 31.9335 5.84654 32.2068C5.91009 32.4801 6.16428 32.6693 6.67267 33.0267L7.43525 33.5732C7.94364 33.9306 8.19783 34.1198 8.47321 34.0988C8.74858 34.0778 8.9816 33.8465 9.40525 33.4051L15.5694 27.0982C16.1414 26.5096 16.4168 26.2363 16.3956 25.8789C16.3744 25.5426 16.0355 25.2903 15.3788 24.8278L12.6039 22.8096ZM24.9534 17.9534C25.2076 18.7102 25.3347 19.1096 25.6525 19.2357C25.9702 19.3619 26.3303 19.1937 27.0717 18.8363L35.0364 14.9681C35.6084 14.6948 35.8837 14.5477 35.9897 14.2954C36.0956 14.0431 36.0108 13.7488 35.799 13.1392L35.5025 12.2562C35.3118 11.6676 35.2059 11.3732 34.9729 11.2261C34.7399 11.0789 34.4221 11.142 33.8078 11.2471L25.0805 12.7607C24.2756 12.9079 23.8731 12.971 23.7036 13.2653C23.5342 13.5596 23.6613 13.938 23.8943 14.7159L24.9534 17.9534ZM20.5898 24.7857C19.9331 25.2693 19.5942 25.5005 19.573 25.8369C19.5518 26.1732 19.8272 26.4676 20.3991 27.0562L26.5633 33.363C27.0082 33.8045 27.22 34.0357 27.4954 34.0568C27.7707 34.0778 28.0249 33.8886 28.5333 33.5312L29.2959 32.9846C29.8043 32.6272 30.0585 32.438 30.122 32.1647C30.1856 31.8914 30.0373 31.6181 29.7407 31.0715L25.5889 23.2931C25.2076 22.5784 25.017 22.221 24.678 22.1369C24.3391 22.0528 24.0214 22.3051 23.3647 22.7676L20.5898 24.7857Z" fill="black"/>
</g>
<defs>
<clipPath id="clip0_5068_2652">
<rect width="197" height="37" fill="white"/>
</clipPath>
</defs>
</svg>
