<svg width="207" height="36" viewBox="0 0 207 36" fill="none" xmlns="http://www.w3.org/2000/svg">
<g clip-path="url(#clip0_5068_2683)">
<path d="M201.941 11.3507C200.838 11.4287 199.735 11.4677 198.674 11.4677C197.775 11.4677 196.264 11.4287 194.794 11.3507C194.467 11.5461 194.426 12.171 194.712 12.4839L196.101 12.7573C196.712 12.8743 196.877 13.0693 196.877 13.4211C196.877 13.5776 196.387 15.1016 195.406 17.2114L194.181 19.8291C193.651 20.9623 193.038 22.2124 192.875 22.2514C192.752 22.2124 192.264 21.2747 191.486 19.2819L189.689 14.7887C188.995 13.0693 189.034 12.9137 189.975 12.7183L191.2 12.4839C191.486 12.21 191.445 11.5071 191.119 11.3507C189.73 11.4287 188.219 11.4677 186.79 11.4677C185.279 11.4677 183.603 11.4287 182.257 11.3507C181.807 11.5071 181.807 12.171 182.134 12.4839L182.952 12.6399C184.504 12.9527 184.789 13.5399 185.77 15.9609L189.078 24.1659C189.689 25.6509 189.772 26.4716 189.772 27.0574C189.772 28.6984 189.31 29.6413 188.452 30.8134C188.044 31.3607 187.309 31.5947 186.737 31.5947L185.839 31.6337C184.695 31.6337 183.756 32.1051 183.756 33.3909C183.756 34.524 184.45 35.4617 186.002 35.4617C187.349 35.4617 188.411 34.8369 189.106 33.3519C190.82 29.7587 193.734 23.9327 195.161 21.2756L197.244 17.2899C198.51 14.8676 199.286 13.7327 199.735 13.3436C200.266 12.7967 201.573 12.6013 202.063 12.4864C202.349 12.2126 202.349 11.4703 201.94 11.3533L201.941 11.3507ZM181.856 12.8353C181.856 11.8191 181.039 10.9209 179.609 10.9209C178.221 10.9209 176.873 12.093 175.607 12.9527C175.362 12.9527 175.199 12.7573 175.199 12.4839C175.199 12.132 175.24 11.4677 175.28 10.7267C175.199 10.4923 174.954 10.3753 174.709 10.3753C173.484 11.0781 171.319 11.9379 169.563 12.4851C169.4 12.6801 169.4 13.227 169.523 13.3851L170.012 13.6586C171.035 14.2419 171.035 14.7107 171.035 16.4691V22.212C171.035 25.1036 170.871 25.533 169.483 25.7263L168.748 25.8437C168.462 26.1171 168.503 26.82 168.829 26.9764C170.381 26.8984 171.729 26.8594 173.077 26.8594C174.588 26.8594 175.976 26.8984 178.427 26.9764C178.753 26.82 178.794 26.1171 178.508 25.8437L176.914 25.6899C175.484 25.5334 175.321 25.104 175.321 22.2124V16.8613C175.321 14.9469 175.566 14.0481 176.505 14.0481C176.751 14.0481 177.445 14.1266 178.465 14.7904C178.796 14.9935 179.178 15.1019 179.568 15.1033C180.671 15.1033 181.855 14.3606 181.855 12.837L181.856 12.8353ZM167.48 25.2613C167.562 24.8327 167.317 24.519 166.949 24.48C166.295 24.9086 165.806 25.1833 164.989 25.1833C162.375 25.1833 162.008 22.995 162.008 20.5333V14.5153C162.008 13.2647 162.048 13.1867 162.784 13.1867H166.663C166.99 12.9917 167.153 12.6399 167.194 12.171C167.194 11.7801 167.113 11.4677 166.868 11.3507H162.825C162.048 11.3507 162.048 11.2333 162.048 10.608V8.26371C161.844 7.95128 161.273 7.83514 160.905 8.06828C160.333 9.12343 159.435 9.94414 158.659 10.491C157.761 11.1163 156.821 11.6241 155.433 12.132C155.065 12.3664 155.147 12.9917 155.556 13.1867H156.985C157.64 13.1867 157.72 13.2257 157.72 14.5933V22.5253C157.72 25.26 158.414 27.411 162.294 27.411C164.785 27.411 166.663 26.3563 167.48 25.2621V25.2613ZM145.916 14.4381C145.916 13.3054 146.896 12.4067 148.203 12.4067C149.796 12.4067 151.103 13.8917 151.715 15.6887C152.001 15.9231 152.695 15.8057 152.818 15.4933C152.818 13.7361 152.613 12.5241 152.207 11.7039C151.635 11.391 150.083 10.9221 148.409 10.9221C145.019 10.9221 142.283 12.7196 142.324 15.765C142.324 18.2657 144.529 19.7113 146.653 20.688C148.082 21.3527 149.43 22.29 149.43 23.736C149.43 25.1036 148.409 25.9239 147.143 25.9239C144.979 25.9239 143.467 23.853 142.734 21.6647C142.448 21.3917 141.836 21.4307 141.591 21.7431C141.509 23.4231 141.754 25.4156 142.163 26.1574C143.469 27.0951 145.144 27.4076 146.818 27.4076C150.044 27.4076 153.189 25.923 153.189 22.5219C153.189 19.4361 150.861 18.1076 148.656 17.0906C147.104 16.3873 145.919 15.5666 145.919 14.4334L145.916 14.4381ZM140.732 25.6899C140.854 25.338 140.568 24.9086 140.364 24.9086C140.241 24.9086 139.67 25.3371 138.975 25.3371C137.505 25.3371 136.893 24.165 137.015 21.8987L137.301 15.8036C137.464 12.3656 135.464 10.9179 132.237 10.9179C130.155 10.9179 127.214 12.2464 125.948 13.3791C124.6 14.5903 124.355 15.411 124.355 15.8799C124.355 16.2317 124.6 16.5051 125.131 16.5051C126.029 16.5051 127.173 16.1533 127.745 15.8014C128.194 15.528 128.439 15.1376 128.521 14.3949C128.684 13.2617 129.542 12.6759 130.685 12.6759C132.686 12.6759 133.258 14.3949 133.177 16.3877L133.136 17.4039C133.136 17.7947 133.013 18.1457 132.196 18.4196C130.685 18.9664 129.134 19.5133 127.704 19.9826C124.886 20.9199 124.315 22.2111 124.315 23.616C124.315 25.5694 125.703 27.4059 128.48 27.4059C129.95 27.4059 131.175 26.859 131.951 26.3901C132.562 26.0387 132.849 25.8433 133.054 25.8433C133.258 25.8433 133.421 26.0387 133.708 26.3121C134.484 27.1324 135.629 27.4059 136.648 27.4059C137.914 27.4059 139.916 26.7806 140.732 25.6869L140.732 25.6899ZM133.013 20.5714L132.931 23.3846C132.89 24.3223 132.442 25.26 130.971 25.26C129.42 25.26 128.684 24.0099 128.684 22.9937C128.684 21.3137 129.746 20.7651 130.89 20.376C131.624 20.1026 132.36 19.9071 132.686 19.9071C132.89 19.9071 133.013 20.1416 133.013 20.5714ZM121.742 18.147C121.742 14.1231 119.169 10.9191 114.718 10.9191C112.594 10.9191 110.185 12.3647 109.654 12.5991C109.45 12.5601 109.327 12.3257 109.327 12.0913C109.327 11.7399 109.409 11.2706 109.531 10.5673C109.45 10.3333 109.204 10.1769 108.877 10.1769C107.652 10.9581 105.201 12.0519 103.568 12.4821C103.363 12.6771 103.363 13.146 103.527 13.3821L104.017 13.695C105.038 14.3979 105.038 14.7107 105.038 16.4691V31.233C105.038 34.1241 104.875 34.554 103.486 34.7494L102.424 34.8664C102.138 35.1399 102.179 35.8431 102.506 35.9996C104.14 35.9216 105.732 35.8826 107.08 35.8826C108.591 35.8826 110.184 35.9216 112.307 35.9996C112.634 35.8431 112.675 35.1399 112.389 34.8664L110.918 34.7104C109.49 34.554 109.326 34.1241 109.326 31.233V28.347C109.326 27.5657 109.571 27.3313 109.937 27.2533C110.305 27.3313 111.244 27.4093 111.734 27.4093C117.737 27.4093 121.739 23.5804 121.739 18.1491L121.742 18.147ZM117.168 19.4383C117.168 23.0327 115.616 25.8463 112.798 25.8463C112.187 25.8463 111.164 25.4944 110.634 25.065C109.776 24.3613 109.327 23.7754 109.327 22.5643V16.6256C109.327 14.9841 109.449 14.3199 109.776 13.9684C110.266 13.4996 111.042 13.1867 111.981 13.1867C115.168 13.1867 117.168 15.7264 117.168 19.4383ZM100.67 18.9694C100.67 13.8904 96.6671 10.9209 92.0526 10.9209C87.2748 10.9209 83.1091 14.2029 83.1091 19.4383C83.1091 24.5567 87.0295 27.4097 91.7261 27.4097C96.5859 27.4097 100.67 24.5186 100.67 18.9703V18.9694ZM95.8508 19.6337C95.8508 22.6423 95.034 25.848 92.2163 25.848C89.2754 25.848 87.9283 22.4096 87.9283 18.8541C87.9283 14.517 89.5618 12.4856 91.6444 12.4856C94.6665 12.4856 95.8508 16.3534 95.8508 19.6354V19.6337ZM82.2893 12.8353C82.2893 11.8191 81.4725 10.9209 80.0429 10.9209C78.6548 10.9209 77.3072 12.093 76.0408 12.9527C75.796 12.9527 75.6327 12.7573 75.6327 12.4839C75.6327 12.132 75.6733 11.4677 75.7143 10.7267C75.6327 10.4923 75.3878 10.3753 75.1425 10.3753C73.9176 11.0781 71.7529 11.9379 69.9967 12.4851C69.8335 12.6801 69.8335 13.227 69.9561 13.3851L70.4464 13.6586C71.4635 14.2419 71.4635 14.7107 71.4635 16.4691V22.212C71.4635 25.1036 71.2998 25.533 69.9116 25.7263L69.1765 25.8437C68.8901 26.1171 68.9312 26.82 69.2577 26.9764C70.81 26.8984 72.1575 26.8594 73.5051 26.8594C75.0163 26.8594 76.4049 26.8984 78.8551 26.9764C79.1816 26.82 79.2227 26.1171 78.9368 25.8437L77.3461 25.6899C75.9164 25.5334 75.7532 25.104 75.7532 22.2124V16.8613C75.7532 14.9469 75.9981 14.0481 76.9375 14.0481C77.1819 14.0481 77.8769 14.1266 78.8975 14.7904C79.2282 14.9934 79.6101 15.1018 80.0001 15.1033C81.1028 15.1033 82.2871 14.3606 82.2871 12.837L82.2893 12.8353ZM67.5448 24.9866C66.9729 25.143 66.3609 25.26 65.7891 25.26C64.8091 25.26 64.768 23.3066 64.768 21.1183V14.5933C64.768 13.1477 64.8091 12.0146 64.8903 11.2723C64.8497 11.0769 64.686 10.9599 64.4821 10.9209C63.6654 11.3117 60.8066 11.5851 58.0704 11.6241C57.7439 11.7801 57.7439 12.4839 58.0298 12.6789L58.6846 12.8743C60.2369 13.3029 60.4818 13.4996 60.4818 15.9999V21.8996C60.4818 23.3456 60.4002 23.6996 59.9916 24.0879C59.2975 24.7131 58.2355 25.065 57.296 25.065C54.3971 25.065 53.9475 22.9157 53.9475 20.6104V14.5933C53.9475 12.6789 53.9885 11.7416 54.0697 11.2723C54.0295 11.0769 53.8663 10.9599 53.662 10.9209C52.7632 11.2333 50.4356 11.5851 47.9872 11.6241C47.6602 11.7416 47.6602 12.4444 47.9051 12.6399L48.4769 12.7963C49.498 13.1087 49.6612 13.3821 49.6612 16.1173V22.2124C49.6612 25.4554 50.846 27.4089 54.5211 27.4089C56.5627 27.4089 58.3599 26.5089 60.075 25.5334C60.3199 25.5334 60.4425 25.6509 60.4835 25.962C60.5241 26.3529 60.4425 26.9387 60.3609 27.4076C60.4019 27.603 60.5241 27.7594 60.7284 27.7984C62.4846 27.0167 65.6289 26.5093 67.426 26.3139C67.9568 26.001 67.8752 25.1807 67.5483 24.9853L67.5448 24.9866ZM34.956 18.1097C34.956 17.6413 35.0381 17.6023 35.8138 17.6023H42.8789C44.5124 17.6023 45.4518 17.4459 45.6967 17.094C45.86 16.7811 45.901 16.5471 45.901 16.194C45.901 12.795 42.7973 10.9196 39.7753 10.9196C34.303 10.9196 31.1583 15.1783 31.1583 19.5934C31.1583 24.0476 34.3012 27.4076 39.0401 27.4076C41.5314 27.4076 44.5535 26.2354 45.9416 23.1099C45.901 22.7584 45.4518 22.3676 45.0432 22.4846C44.1038 23.9306 42.7563 24.438 41.1228 24.438C37.4883 24.438 34.956 21.6253 34.956 18.1084V18.1097ZM35.283 15.7654C35.283 14.9451 36.5489 12.4054 39.285 12.4054C41.0412 12.4054 41.9801 13.5386 41.9801 14.9451C41.9801 15.297 41.8169 15.609 41.572 15.7654C41.2861 15.9219 40.7553 16.0393 39.571 16.0393H35.8548C35.3646 16.0393 35.283 15.9219 35.283 15.7654ZM24.469 19.7537C22.0414 19.9168 19.7056 20.729 17.7146 22.1023C15.719 23.4701 14.1428 25.3481 13.1569 27.5327C15.5841 27.3689 17.9195 26.5561 19.9099 25.1824C21.905 23.8149 23.481 21.9376 24.4672 19.7537H24.469ZM19.4825 16.2896C21.2051 14.6029 22.4247 12.4856 23.0092 10.167C20.6487 10.7446 18.4928 11.942 16.7725 13.6308C15.0523 15.3196 13.8326 17.4362 13.2442 19.7537C15.6062 19.1796 17.763 17.9816 19.4808 16.2896H19.4825ZM12.2314 13.5579C13.4842 11.5106 14.146 9.16725 14.146 6.77893C14.146 4.3906 13.4842 2.04728 12.2314 0C10.9784 2.04719 10.3164 4.39055 10.3164 6.77893C10.3164 9.16731 10.9784 11.5107 12.2314 13.5579ZM11.2165 19.7537C10.6281 17.4362 9.40838 15.3196 7.68814 13.6308C5.9679 11.942 3.81197 10.7446 1.45144 10.167C2.03667 12.4858 3.2572 14.6032 4.98075 16.2896C6.69862 17.9815 8.85542 19.1795 11.2174 19.7537H11.2165ZM6.75435 22.1023C4.76335 20.729 2.42755 19.9168 0 19.7537C0.989162 21.9361 2.5646 23.8131 4.55745 25.1835C6.5503 26.5538 8.88543 27.3659 11.3125 27.5327C10.3266 25.348 8.75019 23.47 6.75435 22.1023Z" fill="black"/>
<path d="M206.84 12.46C206.75 12.2494 206.617 12.0587 206.45 11.8994C206.104 11.57 205.641 11.3857 205.159 11.3857C204.677 11.3857 204.214 11.57 203.868 11.8994C203.701 12.0589 203.567 12.2495 203.476 12.46C203.374 12.6819 203.323 12.9227 203.326 13.1659C203.323 13.4114 203.374 13.6546 203.476 13.879C203.568 14.0918 203.701 14.2849 203.868 14.4477C204.036 14.6093 204.235 14.7362 204.454 14.821C204.907 15.0039 205.415 15.0039 205.868 14.821C206.086 14.7363 206.284 14.6093 206.45 14.4477C206.617 14.2851 206.749 14.0919 206.84 13.879C206.941 13.6546 206.993 13.4114 206.99 13.1659C206.993 12.9227 206.941 12.6819 206.84 12.46ZM206.548 13.7757C206.473 13.956 206.364 14.1211 206.227 14.2626C206.092 14.3999 205.93 14.5098 205.752 14.5862C205.565 14.6645 205.363 14.7037 205.16 14.7014C204.956 14.7034 204.754 14.6641 204.567 14.5862C204.387 14.5099 204.224 14.4 204.087 14.2626C203.95 14.1224 203.844 13.9569 203.774 13.7757C203.62 13.387 203.62 12.9555 203.774 12.5667C203.885 12.2951 204.076 12.0624 204.324 11.8992C204.571 11.7359 204.863 11.6495 205.161 11.6513C205.365 11.6487 205.566 11.6887 205.753 11.7687C205.932 11.8425 206.094 11.9516 206.228 12.0893C206.364 12.2275 206.473 12.3894 206.549 12.5667C206.696 12.9569 206.696 13.3856 206.549 13.7757" fill="black"/>
<path d="M205.859 13.1382C205.965 13.0525 206.018 12.9102 206.018 12.7216C206.018 12.5331 205.958 12.3736 205.839 12.2755C205.72 12.1773 205.527 12.1255 205.272 12.1255H204.453V14.2161H204.781V13.3161H205.131L205.712 14.2161H206.067L205.46 13.2955C205.606 13.2831 205.744 13.2284 205.858 13.1382M205.127 13.0568H204.781V12.3873H205.222C205.278 12.3886 205.333 12.3927 205.389 12.3998C205.441 12.4078 205.491 12.4234 205.538 12.4461C205.583 12.4696 205.62 12.5034 205.648 12.5446C205.677 12.5941 205.691 12.651 205.687 12.7079C205.693 12.7768 205.677 12.8457 205.64 12.9051C205.614 12.9511 205.571 12.9863 205.52 13.0041C205.464 13.0294 205.404 13.0447 205.342 13.0491C205.273 13.0521 205.204 13.0555 205.128 13.0555" fill="black"/>
</g>
<defs>
<clipPath id="clip0_5068_2683">
<rect width="207" height="36" fill="white"/>
</clipPath>
</defs>
</svg>
