<svg width="152" height="40" viewBox="0 0 152 40" fill="none" xmlns="http://www.w3.org/2000/svg">
<g clip-path="url(#clip0_5068_2657)">
<path d="M151.115 29.184C151.039 25.93 148.819 24.4257 147.546 23.6295C145.129 22.0036 139.059 21.0119 136.521 19.7413C134.611 18.7877 134.377 17.5218 134.377 16.8853C134.377 16.2536 134.456 15.3 136.125 14.5848C137.789 13.872 139.057 15.1403 140.566 17.1237C142.707 19.9034 143.977 19.6435 144.449 19.6626C145.444 19.7007 146.514 18.8306 146.674 17.8365C147.067 13.9507 143.615 12.5251 141.436 11.8886C139.436 11.3045 134.532 11.2902 132.513 13.5931H132.446C130.422 11.2926 125.521 11.3045 123.521 11.8886C121.34 12.5227 117.888 13.9507 118.286 17.8365C118.443 18.8306 119.516 19.7007 120.508 19.6626C120.984 19.6435 122.253 19.901 124.396 17.1237C125.9 15.1403 127.171 13.872 128.835 14.5848C130.501 15.3 130.582 16.2536 130.582 16.8853C130.582 17.5218 130.351 18.7853 128.439 19.7413C125.9 21.0119 119.831 22.0036 117.409 23.6295C116.14 24.4233 113.921 25.93 113.842 29.184C113.759 32.6765 115.947 34.6838 117.888 35.6898C120.026 36.8007 123.283 37.1583 126.453 35.573C130.463 33.5681 130.899 32.9554 132.327 32.8362H132.63C134.058 32.9554 134.492 33.5681 138.499 35.573C141.675 37.1583 144.926 36.8031 147.067 35.6898C149.008 34.6861 151.203 32.6789 151.115 29.184ZM130.506 25.8537C130.506 27.6774 130.349 31.885 126.379 32.4357C122.412 32.9912 121.7 29.8182 121.7 29.0267C121.7 28.2328 121.778 26.4091 125.826 24.8214C129.872 23.2361 130.349 22.6807 130.506 21.0143V25.8537ZM138.58 32.4357C134.613 31.8826 134.456 27.6774 134.456 25.8537V21.0143C134.613 22.6807 135.093 23.2361 139.138 24.8214C143.181 26.4091 143.26 28.2328 143.26 29.0267C143.262 29.8205 142.549 32.9912 138.58 32.4357Z" fill="black"/>
<path d="M22.4304 21.2836C22.4304 17.0879 21.0978 11.562 11.8005 11.562C8.18404 11.562 5.04679 12.413 2.81781 13.5859L3.18732 19.1071C4.99672 17.6219 7.81215 16.399 10.6848 16.399C14.8829 16.399 16.051 18.7376 16.051 21.2836V22.354H13.5026C4.04553 22.354 0 25.9085 0 31.6538C0 36.9151 3.40426 39.9999 8.13398 39.9999C11.8029 39.9999 14.0342 38.2954 16.051 35.747H16.1082C16.1082 36.3859 16.3728 38.8294 16.4229 39.4683H22.695C22.5377 38.1381 22.4328 36.2261 22.4328 34.3118V21.2836H22.4304ZM16.051 28.2495C16.051 31.4392 14.5658 35.2177 10.4202 35.2177C7.92419 35.2177 6.48906 33.8303 6.48906 31.177C6.48906 27.9849 9.14715 26.073 13.9269 26.073C14.511 26.073 15.734 26.073 16.051 26.1278V28.2495Z" fill="black"/>
<path d="M39.2706 23.8917L36.8796 22.9882C34.2239 21.9798 32.9985 21.0238 32.9985 19.4814C32.9985 17.672 34.5433 16.6111 36.9368 16.6111C39.1681 16.6111 41.3971 17.3549 42.992 18.0439L43.2566 12.6777C41.4519 12.0435 39.0609 11.5596 36.51 11.5596C29.6539 11.5596 26.3545 15.331 26.3545 20.0607C26.3545 23.515 27.7372 25.7988 31.8876 27.4461L34.8079 28.6214C37.2562 29.5774 38.1025 30.4833 38.1025 31.9136C38.1025 33.5609 36.5649 34.7815 33.5873 34.7815C30.7695 34.7815 28.481 33.7778 26.7288 32.8171L26.519 38.5552C28.2736 39.3586 31.5157 39.9904 34.436 39.9904C41.6069 39.9904 44.6941 36.4288 44.6941 31.2223C44.6941 27.1314 42.6225 25.1671 39.2706 23.8917Z" fill="black"/>
<path d="M55.627 12.0435H48.561V39.4635H55.627V12.0435Z" fill="black"/>
<path d="M73.8994 34.7838C72.0375 34.7838 70.9242 33.7254 70.9242 31.0124V17.1403H76.3977V12.0435H70.9242V4.229L63.9107 6.35309V12.0435H59.3335V17.1403H63.9107V32.6621C63.9107 37.6589 66.7809 39.9927 71.4535 39.9927C73.4703 39.9927 75.3893 39.6232 76.5098 39.299L76.4001 34.2546C75.7612 34.574 74.9102 34.7838 73.8994 34.7838Z" fill="black"/>
<path d="M90.8063 11.3306C82.1455 11.3306 78.4766 17.5479 78.4766 25.5245C78.4766 33.5465 82.1431 39.7685 90.8063 39.7685C99.4242 39.7685 103.139 33.5489 103.139 25.5245C103.141 17.5479 99.4242 11.3306 90.8063 11.3306ZM90.8063 34.6669C87.0373 34.6669 85.8167 30.9408 85.8167 25.5245C85.8167 20.1535 87.0373 16.3845 90.8063 16.3845C94.53 16.3845 95.803 20.1535 95.803 25.5245C95.803 30.9408 94.53 34.6669 90.8063 34.6669Z" fill="black"/>
<path d="M52.0651 0C49.9196 0 48.1841 1.7355 48.1841 3.87866C48.1841 6.01943 49.9196 7.76208 52.0651 7.76208C54.2035 7.76208 55.9438 6.02181 55.9438 3.87866C55.9438 1.7355 54.2035 0 52.0651 0Z" fill="black"/>
<path d="M151.346 32.0708C151.344 31.9254 151.294 31.8205 151.282 31.6846C151.32 31.3437 151.356 31.0028 151.346 30.6262C151.342 30.4736 151.296 30.3592 151.282 30.2161C151.318 29.8824 151.356 29.5486 151.346 29.1791C151.263 25.6795 148.743 24.1061 147.675 23.4386C147.139 23.0786 146.416 22.7568 145.615 22.4517C146.266 22.0893 146.793 21.4671 146.91 20.7567C146.958 20.2775 146.943 19.8269 146.877 19.3978C146.884 19.3668 146.905 19.3406 146.91 19.312C146.958 18.84 146.931 18.399 146.869 17.9722C146.877 17.9341 146.905 17.9031 146.91 17.865C147.21 14.8874 145.391 12.8039 141.506 11.6715C140.767 11.457 139.725 11.333 138.642 11.333C137.341 11.333 134.192 11.5285 132.482 13.2926C130.771 11.5285 127.622 11.333 126.32 11.333C125.24 11.333 124.196 11.4593 123.462 11.6715C119.571 12.8039 117.757 14.8874 118.062 17.8793C118.067 17.915 118.093 17.946 118.1 17.9818C118.038 18.4085 118.012 18.8519 118.062 19.3263C118.067 19.3549 118.088 19.3788 118.093 19.4074C118.026 19.8389 118.012 20.2918 118.062 20.771C118.174 21.4742 118.703 22.0941 119.356 22.454C118.558 22.7592 117.828 23.0762 117.294 23.4362C116.219 24.1109 113.702 25.6867 113.618 29.1815C113.609 29.5486 113.647 29.88 113.683 30.2137C113.668 30.3592 113.621 30.476 113.618 30.6285C113.609 31.0028 113.647 31.3437 113.685 31.6822C113.671 31.8205 113.623 31.9254 113.618 32.0732C113.525 35.9852 116.191 37.9615 117.79 38.7887C119.008 39.4205 120.496 39.7685 121.988 39.7685C123.571 39.7685 125.111 39.399 126.568 38.6719C128.013 37.9496 129.002 37.4061 129.724 37.0056C131.009 36.2951 131.491 36.0305 132.337 35.959H132.618C133.484 36.0305 133.965 36.2951 135.245 37.0056C135.968 37.4037 136.959 37.952 138.404 38.6743C139.861 39.4014 141.401 39.7709 142.986 39.7709C144.497 39.7709 145.947 39.4324 147.182 38.7911C148.777 37.9568 151.447 35.9781 151.346 32.0708ZM146.965 35.4846C145.811 36.083 144.395 36.412 142.979 36.412C141.47 36.412 139.999 36.0591 138.609 35.363C137.179 34.6502 136.197 34.1067 135.479 33.7086C134.165 32.9839 133.62 32.6835 132.635 32.6024H132.313C131.345 32.6811 130.802 32.9839 129.483 33.7086C128.766 34.1067 127.784 34.6479 126.356 35.3606C124.966 36.0568 123.495 36.4096 121.984 36.4096C120.568 36.4096 119.151 36.0806 117.998 35.4822C116.496 34.7027 113.988 32.8504 114.076 29.1886C114.157 25.9441 116.439 24.5114 117.542 23.82C118.882 22.9213 121.38 22.2156 123.795 21.5338C125.662 21.007 127.424 20.5087 128.544 19.9485C130.52 18.9616 130.816 17.6051 130.816 16.8852C130.816 16.0413 130.592 15.0853 128.93 14.3701C128.589 14.2247 128.249 14.1508 127.92 14.1508C126.623 14.1508 125.538 15.2355 124.213 16.9805C122.322 19.4312 121.149 19.4312 120.708 19.4312H120.584C120.553 19.4312 120.525 19.4312 120.498 19.4312L120.444 19.4336C119.571 19.4336 118.651 18.654 118.517 17.8125C118.236 15.0519 119.893 13.1877 123.588 12.1125C124.284 11.9099 125.278 11.7931 126.318 11.7931C127.591 11.7931 130.723 11.9838 132.273 13.7479L132.342 13.8266H132.618L132.687 13.7479C134.237 11.9838 137.367 11.7931 138.642 11.7931C139.68 11.7931 140.678 11.9099 141.374 12.1125C145.067 13.1877 146.726 15.0543 146.447 17.8006C146.309 18.654 145.389 19.4336 144.517 19.4336L144.462 19.4312C144.435 19.4312 144.407 19.4312 144.378 19.4312H144.252C143.811 19.4312 142.64 19.4312 140.752 16.9829C139.422 15.2355 138.337 14.1532 137.043 14.1532C136.714 14.1532 136.373 14.2271 136.034 14.3725C134.368 15.0853 134.144 16.0436 134.144 16.8876C134.144 17.6099 134.44 18.964 136.416 19.9509C137.536 20.5111 139.3 21.007 141.165 21.5362C143.58 22.218 146.078 22.9237 147.423 23.8296C148.519 24.5138 150.805 25.9417 150.882 29.191C150.975 32.8504 148.469 34.7027 146.965 35.4846ZM123.824 21.0475C124.065 20.7901 124.315 20.5087 124.582 20.1607C125.822 18.5253 126.813 17.5121 127.917 17.5121C128.189 17.5121 128.461 17.5717 128.747 17.6933C129.259 17.9126 129.553 18.1558 129.779 18.399C129.472 18.7923 129.042 19.1857 128.339 19.5361C127.288 20.0606 125.612 20.5421 123.824 21.0475ZM141.153 21.0499C139.362 20.5421 137.677 20.0606 136.626 19.5337C135.918 19.1809 135.486 18.7852 135.179 18.3894C135.41 18.1463 135.708 17.9103 136.218 17.6909C136.504 17.5694 136.773 17.5098 137.043 17.5098C138.144 17.5098 139.138 18.5229 140.383 20.1607C140.657 20.5135 140.907 20.7948 141.153 21.0499Z" fill="black"/>
<path d="M125.741 24.6071C121.469 26.2806 121.469 28.276 121.469 29.0245C121.469 29.9876 122.208 32.7339 125.493 32.7339C125.786 32.7339 126.093 32.7101 126.413 32.6648C129.281 32.2667 130.737 29.9733 130.737 25.8515V21.0121L130.272 20.9907C130.129 22.5379 129.693 23.0575 125.741 24.6071ZM130.272 25.8539C130.272 27.2914 130.272 31.6588 126.346 32.2071C126.048 32.2476 125.762 32.2691 125.49 32.2691C123.638 32.2691 122.765 31.3226 122.339 30.4525C122.782 29.6897 123.728 28.7838 125.907 27.9327C128.518 26.9076 129.71 26.2997 130.272 25.4629V25.8539Z" fill="black"/>
<path d="M139.224 24.6071C135.272 23.0552 134.835 22.5379 134.688 20.9907L134.223 21.0145V25.8539C134.223 29.9757 135.679 32.2667 138.547 32.6672C138.867 32.7125 139.176 32.7363 139.47 32.7363C142.755 32.7363 143.494 29.99 143.494 29.0269C143.494 28.276 143.494 26.283 139.224 24.6071ZM139.47 32.2691C139.198 32.2691 138.909 32.2476 138.611 32.2071C134.688 31.6588 134.688 27.2914 134.688 25.8539V25.4582C135.248 26.2973 136.442 26.9052 139.052 27.9303C141.234 28.7838 142.18 29.6896 142.624 30.4525C142.197 31.325 141.322 32.2691 139.47 32.2691Z" fill="black"/>
<path d="M146.447 20.695C146.333 21.3911 145.696 22.0062 144.991 22.2183C144.09 21.9037 143.108 21.6104 142.106 21.3244C141.701 20.9739 141.262 20.5401 140.752 19.8773C139.422 18.1299 138.337 17.0452 137.043 17.0452C136.711 17.0452 136.373 17.1191 136.034 17.2645C135.51 17.4886 135.181 17.7437 134.916 18.0059C134.84 17.8629 134.771 17.7199 134.728 17.584C134.881 17.1215 135.257 16.6542 136.218 16.2442C136.504 16.1202 136.773 16.063 137.043 16.063C138.147 16.063 139.138 17.0762 140.383 18.7116C142.18 21.0431 143.398 21.3411 144.257 21.3411H144.371C144.397 21.3411 144.421 21.3411 144.443 21.3411C145.205 21.3697 145.968 20.9143 146.45 20.2778C146.447 20.4185 146.464 20.5496 146.447 20.695Z" fill="black"/>
<path d="M118.52 20.7093C118.505 20.5615 118.522 20.4304 118.517 20.2874C118.98 20.8976 119.704 21.3434 120.446 21.3434C120.47 21.3434 120.494 21.3434 120.52 21.3411C120.541 21.3411 120.567 21.3411 120.594 21.3411H120.706C121.566 21.3411 122.784 21.0431 124.584 18.7092C125.824 17.0762 126.816 16.063 127.922 16.063C128.194 16.063 128.465 16.1226 128.749 16.2442C129.707 16.6542 130.082 17.1215 130.237 17.5864C130.194 17.7246 130.125 17.8653 130.048 18.0083C129.784 17.7461 129.457 17.4886 128.933 17.2645C128.592 17.1191 128.251 17.0452 127.919 17.0452C126.625 17.0452 125.54 18.1275 124.215 19.8749C123.705 20.5353 123.264 20.9715 122.861 21.322C121.857 21.6081 120.868 21.9013 119.964 22.216C119.263 22.0062 118.629 21.3935 118.52 20.7093Z" fill="black"/>
<path d="M122.041 29.6488C122.274 28.8025 123.078 27.594 125.91 26.4831C128.494 25.4723 129.683 24.8644 130.253 24.0396C130.091 25.4604 129.55 26.0039 125.743 27.4986C123.709 28.2949 122.679 29.1555 122.124 29.9302C122.091 29.8301 122.062 29.7347 122.041 29.6488Z" fill="black"/>
<path d="M142.843 29.9301C142.287 29.1577 141.26 28.2947 139.224 27.4985C135.41 26.0014 134.873 25.4579 134.709 24.0347C135.274 24.8619 136.466 25.4698 139.052 26.483C141.887 27.5939 142.69 28.8001 142.924 29.6488C142.903 29.737 142.874 29.8324 142.843 29.9301Z" fill="black"/>
<path d="M146.965 38.3764C145.811 38.9748 144.397 39.3038 142.981 39.3038C141.472 39.3038 140.001 38.951 138.609 38.2549C137.171 37.5373 136.187 36.9938 135.467 36.5956C134.161 35.8733 133.617 35.5753 132.635 35.4943H132.313C131.347 35.5753 130.806 35.8733 129.495 36.598C128.778 36.9961 127.793 37.5397 126.356 38.2549C124.963 38.951 123.492 39.3038 121.983 39.3038C120.565 39.3038 119.151 38.9748 118 38.3764C116.755 37.7304 114.846 36.331 114.267 33.7969C115.137 35.6683 116.701 36.7792 117.785 37.3418C119.003 37.9735 120.493 38.3216 121.983 38.3216C123.566 38.3216 125.106 37.9545 126.563 37.225C127.998 36.5074 128.985 35.9615 129.705 35.5658C130.997 34.853 131.481 34.586 132.33 34.5145H132.611C133.479 34.586 133.963 34.853 135.25 35.5658C135.972 35.9639 136.959 36.5098 138.397 37.2274C139.853 37.9569 141.393 38.324 142.976 38.324C144.488 38.324 145.94 37.9855 147.174 37.3442C148.261 36.7816 149.821 35.6683 150.693 33.804C150.116 36.3286 148.209 37.728 146.965 38.3764Z" fill="black"/>
<path d="M136.035 15.8197C136.373 15.6743 136.714 15.6004 137.043 15.6004C138.337 15.6004 139.422 16.6827 140.752 18.4301C142.64 20.8784 143.816 20.8784 144.257 20.8784H144.371C144.405 20.8784 144.436 20.8784 144.462 20.8808H144.517C145.341 20.8808 146.185 20.1823 146.395 19.386C146.374 19.2478 146.345 19.1143 146.312 18.9832C145.83 19.5339 145.141 19.9224 144.443 19.8986C144.424 19.8986 144.4 19.8986 144.376 19.8986H144.25C143.744 19.8986 142.409 19.8986 140.38 17.2667C139.136 15.6314 138.142 14.6182 137.041 14.6182C136.771 14.6182 136.502 14.6778 136.216 14.7994C134.762 15.4216 134.616 16.1773 134.611 16.8448C134.888 16.4777 135.319 16.1248 136.035 15.8197Z" fill="black"/>
<path d="M120.446 20.8808H120.501C120.527 20.8784 120.558 20.8784 120.591 20.8784H120.703C121.147 20.8784 122.322 20.8784 124.215 18.4301C125.54 16.6851 126.623 15.6004 127.92 15.6004C128.251 15.6004 128.589 15.6743 128.93 15.8197C129.648 16.1272 130.079 16.48 130.351 16.8519C130.351 16.3561 130.32 15.4764 128.747 14.7994C128.461 14.6778 128.191 14.6182 127.92 14.6182C126.816 14.6182 125.822 15.6314 124.582 17.2667C122.782 19.6006 121.569 19.8986 120.711 19.8986H120.587C120.563 19.8986 120.539 19.8986 120.52 19.8986C119.819 19.9248 119.135 19.5386 118.653 18.9975C118.62 19.1286 118.591 19.2597 118.57 19.3956C118.775 20.1823 119.621 20.8808 120.446 20.8808Z" fill="black"/>
<path d="M125.91 25.0382C122.377 26.4233 121.986 27.9657 121.94 28.7596C122.434 27.9204 123.459 26.9454 125.74 26.0514C129.55 24.5591 130.089 24.0132 130.251 22.5923C129.683 23.4196 128.494 24.0275 125.91 25.0382Z" fill="black"/>
<path d="M134.709 22.5879C134.873 24.0111 135.41 24.5546 139.224 26.0517C141.506 26.9481 142.531 27.9231 143.024 28.7622C142.981 27.9708 142.593 26.426 139.053 25.0385C136.466 24.0254 135.274 23.4175 134.709 22.5879Z" fill="black"/>
<path d="M147.177 35.8972C145.94 36.5384 144.488 36.877 142.979 36.877C141.398 36.877 139.858 36.5098 138.402 35.7803C136.964 35.0604 135.977 34.5145 135.255 34.1164C133.967 33.4059 133.484 33.1389 132.616 33.0674H132.334C131.486 33.1389 131.002 33.4059 129.71 34.1164C128.987 34.5145 128 35.0604 126.565 35.7803C125.109 36.5074 123.569 36.877 121.986 36.877C120.496 36.877 119.006 36.5289 117.788 35.8972C116.71 35.3369 115.163 34.2403 114.288 32.3975C114.875 34.9031 116.765 36.2905 118 36.9318C119.154 37.5302 120.567 37.8591 121.986 37.8591C123.495 37.8591 124.966 37.5063 126.358 36.8102C127.784 36.0974 128.768 35.5539 129.486 35.1581C130.804 34.431 131.348 34.1307 132.315 34.0496H132.637C133.624 34.1307 134.168 34.431 135.481 35.1581C136.199 35.5539 137.181 36.0974 138.611 36.8126C140.004 37.5087 141.474 37.8615 142.983 37.8615C144.4 37.8615 145.816 37.5302 146.969 36.9342C148.207 36.2905 150.095 34.9054 150.681 32.4023C149.802 34.2379 148.254 35.3369 147.177 35.8972Z" fill="black"/>
</g>
<defs>
<clipPath id="clip0_5068_2657">
<rect width="152" height="40" fill="white"/>
</clipPath>
</defs>
</svg>
